<svg version="1" xmlns="http://www.w3.org/2000/svg" width="1333.333" height="1333.333" viewBox="0 0 1000.000000 1000.000000"><path d="M0 500v500h1000V0H0v500zm400.8-119.2c7.4 19.1 14 36 14.7 37.7.7 1.6 10.6 27.1 22 56.5s21.5 55.5 22.5 58 4.4 11.2 7.5 19.5c3.1 8.2 6.1 15.9 6.6 17 .4 1.1 2.2 5.6 3.9 10 1.7 4.4 3.5 8.9 3.9 10 .5 1.1 1.9 4.7 3.1 8 1.2 3.3 2.6 6.9 3.1 8 .4 1.1 2.4 6 4.3 10.9 6.2 15.6 14.5 25.5 23.3 27.9 2.6.7 4.3 1.7 4.4 2.7 0 .8.2 2.5.3 3.7.3 2.8-1.3 3.3-7.9 2.7-7.7-.7-110.1-.7-117.7 0-6.4.6-6.7.5-6.6-1.7 0-5.6.6-6.3 5-6.5 12.3-.7 20-3.7 23.2-9.1 2.1-3.7 2.7-9.9 1.3-15.1-.8-3.3-24.7-69.3-28.6-79l-1.7-4.5h-94.9l-2.8 7c-1.6 3.8-3.5 9-4.4 11.5-.8 2.5-2.1 5.8-2.9 7.5-2 4.5-7.3 19.5-6.9 19.5.2 0-.2 1.5-.9 3.2-4 9.7-6.1 29.9-4 38.2 3.6 13.6 14 19.9 34.9 21 1.6.1 2 .8 2 4.1v4l-11-.4c-14.2-.5-60.1-.6-68.5-.1l-6.5.4-.3-4.2c-.2-3.3 0-4.2 1.3-4.2 4.5 0 13.5-8.8 21.3-20.9 5.2-7.9 19.4-35.1 23.7-45.1 1-2.5 2.9-7 4.3-10 7.9-17.8 24.6-60.6 37.9-97.5 10.1-27.9 10.2-28.2 15.3-42.5 13.5-38.4 25.8-70.7 30-79l2-4h30.5l13.3 34.8zM606 348.2c21.2 0 44.9-.3 52.8-.6l14.2-.6v4c0 3.1-.4 4-1.7 4.1-18.9 1-25.8 4.3-30.5 14.5-2.2 4.8-2.3 5.9-2.5 39.9-.7 124.1-.3 207.4 1.1 220.9.7 6.8 6.1 11.8 14.1 13.3 4.4.7 37.1.7 42-.2 7.6-1.2 14.9-3.7 20.4-6.7 12-6.7 23.5-18.4 30.7-31.3.6-1.1 2-3.6 3.1-5.5 6.1-10.7 14.6-37.8 15.8-50.4.1-1.6 1-2 4.8-2.1 5.2-.2 5-.6 4.6 8.5-.9 22.3-.1 68.6 1.7 90.2l.6 7.7-20.3-.5c-26.4-.5-160.9-.5-194.1.1l-25.8.4V650c0-2.2.3-4.1.8-4.1.4-.1 2.1-.2 3.7-.4 15.6-1.3 22.4-5.6 26-16.6 1.6-4.8 1.8-14.2 1.8-117.8.1-112.6-.2-133.3-2.3-140.9-2.5-9.4-9.6-13.2-27.2-14.4-2.6-.2-2.8-.6-2.8-4.5V347l15.3.6c8.3.4 32.5.6 53.7.6z"/><path d="M340.6 413.6c-.4 1.1-3.2 8.4-6.2 16.4-3 8-6.6 17.2-7.9 20.5-1.3 3.3-2.6 6.7-2.9 7.5-.3.8-6.5 17-13.9 36l-13.3 34.5 43.4.3c24 .1 43.7 0 44-.3.3-.3-2.7-9.2-6.5-19.7-3.9-10.6-11.5-31.2-16.7-45.8-5.3-14.6-9.9-27.2-10.3-28-.3-.8-.7-2-.9-2.5-.8-2.8-6.5-17.8-7.2-19.2-.8-1.3-1-1.3-1.6.3z"/></svg>